<?xml version="1.0" encoding="UTF-8"?>
<svg width="76px" height="48px" viewBox="0 0 76 48" version="1.1" xmlns="http://www.w3.org/2000/svg" xmlns:xlink="http://www.w3.org/1999/xlink">
    <g stroke="none" stroke-width="1" fill="currentColor" fill-rule="evenodd">
        <path d="M67.1266846,19.7227726 L67.1266846,11.4059406 L61.1967657,11.4059406 L61.1967657,19.7227726 L52.6576823,19.7227726 L52.6576823,25.6633669 L61.1967657,25.6633669 L61.1967657,34.2178217 L67.1266846,34.2178217 L67.1266846,25.6633669 L75.4285714,25.6633669 L75.4285714,19.7227726 L67.1266846,19.7227726 Z M23.9568731,19.2475246 L23.9568731,28.7524754 C23.9568731,28.7524754 33.1610571,28.7401189 36.9087657,28.7401189 C34.8793097,34.9019406 31.7236446,38.2574263 23.9568731,38.2574263 C16.0968846,38.2574263 9.962264,31.8741383 9.962264,24 C9.962264,16.1258617 16.0968846,9.74257371 23.9568731,9.74257371 C28.1125611,9.74257371 30.7964423,11.2058617 33.2583074,13.2453863 C35.2289383,11.271208 35.0643234,10.9898617 40.077952,6.24665371 C35.8219303,2.36578171 30.1652617,0 23.9568731,0 C10.7258,0 0,10.7451086 0,24 C0,37.2546537 10.7258,48 23.9568731,48 C43.7336286,48 48.5674606,30.7485143 46.96496,19.2475246 L23.9568731,19.2475246 Z" id="GooglePlus"></path>
    </g>
</svg>